<svg width="16" height="20" viewBox="0 0 16 20" fill="none" xmlns="http://www.w3.org/2000/svg">
<path fill-rule="evenodd" clip-rule="evenodd" d="M3.5 5V4.5C3.5 3.30653 3.97411 2.16193 4.81802 1.31802C5.66193 0.474106 6.80653 0 8 0C9.19347 0 10.3381 0.474106 11.182 1.31802C12.0259 2.16193 12.5 3.30653 12.5 4.5V5H15C15.552 5 16 5.449 16 6.007V18.008C16 19.108 15.105 20 14.006 20H1.994C1.4655 20 0.958626 19.7902 0.584736 19.4167C0.210846 19.0432 0.000530086 18.5365 0 18.008V6.008C0 5.45 0.445 5 1 5H3.5ZM5 5H11V4.5C11 3.70435 10.6839 2.94129 10.1213 2.37868C9.55871 1.81607 8.79565 1.5 8 1.5C7.20435 1.5 6.44129 1.81607 5.87868 2.37868C5.31607 2.94129 5 3.70435 5 4.5V5ZM3.5 5V9H5V5H3.5ZM11 5V9H12.5V5H11Z" fill="currentColor"/>
</svg>
