<?xml version="1.0" encoding="UTF-8"?>
<svg id="Layer_1" data-name="Layer 1" xmlns="http://www.w3.org/2000/svg" xmlns:xlink="http://www.w3.org/1999/xlink" viewBox="0 0 500 500">
  <defs>
    <style>
      .cls-1 {
        fill: none;
      }

      .cls-2 {
        fill: url(#linear-gradient);
      }

      .cls-3 {
        fill: #fff;
      }

      .cls-4 {
        clip-path: url(#clippath);
      }
    </style>
    <clipPath id="clippath">
      <rect class="cls-1" y="0" width="500" height="500"/>
    </clipPath>
    <linearGradient id="linear-gradient" x1="438.68" y1="413.91" x2="61.32" y2="85.87" gradientTransform="translate(0 499.89) scale(1 -1)" gradientUnits="userSpaceOnUse">
      <stop offset=".04" stop-color="#c234b2"/>
      <stop offset=".42" stop-color="#9d33f3"/>
      <stop offset=".69" stop-color="#7033fc"/>
      <stop offset=".94" stop-color="#1b00fd"/>
    </linearGradient>
  </defs>
  <g class="cls-4">
    <g>
      <path class="cls-2" d="M250,27.85c30,0,59.1,5.87,86.46,17.44,13.16,5.57,25.85,12.45,37.72,20.48,11.77,7.95,22.84,17.08,32.9,27.14,10.06,10.06,19.19,21.13,27.14,32.9,8.02,11.88,14.91,24.57,20.48,37.72,11.58,27.37,17.45,56.46,17.45,86.46s-5.87,59.1-17.45,86.46c-5.56,13.16-12.45,25.85-20.48,37.72-7.95,11.77-17.08,22.84-27.14,32.9-10.06,10.06-21.13,19.19-32.9,27.14-11.88,8.02-24.57,14.91-37.72,20.48-27.37,11.58-56.46,17.45-86.46,17.45s-59.1-5.87-86.46-17.45c-13.16-5.57-25.85-12.45-37.72-20.48-11.77-7.95-22.84-17.08-32.9-27.14-10.06-10.06-19.19-21.13-27.14-32.9-8.02-11.88-14.91-24.57-20.48-37.72-11.58-27.37-17.44-56.46-17.44-86.46s5.87-59.1,17.44-86.46c5.57-13.16,12.45-25.85,20.48-37.72,7.95-11.77,17.08-22.84,27.14-32.9,10.06-10.06,21.13-19.19,32.9-27.14,11.88-8.02,24.57-14.91,37.72-20.48,27.37-11.58,56.46-17.44,86.46-17.44ZM250,0C111.93,0,0,111.93,0,250s111.93,250,250,250,250-111.93,250-250S388.07,0,250,0Z"/>
      <path class="cls-3" d="M165.8,130.87h166.81v31.66h-133.24v67.66h124.72v31.29h-124.81v76.38h134.9v31.27h-168.39v-238.26Z"/>
    </g>
  </g>
</svg>