<svg width="39" height="39" viewBox="0 0 39 39" fill="none" xmlns="http://www.w3.org/2000/svg">
<path d="M0.864258 0.864145V0.864136H37.9264C37.9264 11.4102 36.5822 38.1183 18.1471 38.1183C0.864258 38.1183 0.864258 12.7701 0.864258 0.864145Z" stroke="currentColor" stroke-width="1.72829" stroke-linecap="round" stroke-linejoin="round"/>
<path d="M8.92969 23.9002V12.3879C8.92969 11.8328 9.15021 11.3004 9.54276 10.9079C9.9353 10.5153 10.4677 10.2948 11.0228 10.2948H27.768C28.3231 10.2948 28.8555 10.5153 29.2481 10.9079C29.6406 11.3004 29.8611 11.8328 29.8611 12.3879V23.9002C29.8611 24.4554 29.6406 24.9878 29.2481 25.3803C28.8555 25.7729 28.3231 25.9934 27.768 25.9934H11.0228C10.4677 25.9934 9.9353 25.7729 9.54276 25.3803C9.15021 24.9878 8.92969 24.4554 8.92969 23.9002Z" stroke="currentColor" stroke-width="1.5"/>
<path d="M15.7324 5.58533L19.3954 9.24833L23.0584 5.58533" stroke="currentColor" stroke-width="1.03365" stroke-linecap="round" stroke-linejoin="round"/>
<path d="M15.8462 13.2297H22.6451V14.5201H17.2148V17.2776H22.2983V18.5529H17.2111V21.6661H22.7095V22.9406H15.8462V13.2297Z" fill="currentColor"/>
</svg>
