<svg width="21" height="22" viewBox="0 0 21 22" fill="none" xmlns="http://www.w3.org/2000/svg">
  <path d="M2.10813 6.24414H0V19.3794C0 19.9601 0.222106 20.5169 0.617458 20.9274C1.01281 21.338 1.54902 21.5687 2.10813 21.5687H14.7569V19.3794H2.10813V6.24414Z" fill="currentColor"/>
  <path d="M18.8715 0H6.10106C5.53657 0 4.9952 0.224242 4.59605 0.623395C4.1969 1.02255 3.97266 1.56392 3.97266 2.1284V14.8988C3.97266 15.4633 4.1969 16.0047 4.59605 16.4038C4.9952 16.803 5.53657 17.0272 6.10106 17.0272H18.8715C19.436 17.0272 19.9773 16.803 20.3765 16.4038C20.7757 16.0047 20.9999 15.4633 20.9999 14.8988V2.1284C20.9999 1.56392 20.7757 1.02255 20.3765 0.623395C19.9773 0.224242 19.436 0 18.8715 0ZM9.29367 12.7704V4.25681L16.7431 8.51362L9.29367 12.7704Z" fill="currentColor"/>
</svg>
