<svg width="35" height="35" viewBox="0 0 35 35" fill="none" xmlns="http://www.w3.org/2000/svg">
  <path d="M10.2083 11.6667C10.2083 11.2799 10.362 10.909 10.6355 10.6355C10.909 10.362 11.2799 10.2083 11.6667 10.2083H23.3333C23.7201 10.2083 24.091 10.362 24.3645 10.6355C24.638 10.909 24.7917 11.2799 24.7917 11.6667C24.7917 12.0534 24.638 12.4244 24.3645 12.6979C24.091 12.9713 23.7201 13.125 23.3333 13.125H11.6667C11.2799 13.125 10.909 12.9713 10.6355 12.6979C10.362 12.4244 10.2083 12.0534 10.2083 11.6667ZM11.6667 18.9583H23.3333C23.7201 18.9583 24.091 18.8047 24.3645 18.5312C24.638 18.2577 24.7917 17.8868 24.7917 17.5C24.7917 17.1132 24.638 16.7423 24.3645 16.4688C24.091 16.1953 23.7201 16.0417 23.3333 16.0417H11.6667C11.2799 16.0417 10.909 16.1953 10.6355 16.4688C10.362 16.7423 10.2083 17.1132 10.2083 17.5C10.2083 17.8868 10.362 18.2577 10.6355 18.5312C10.909 18.8047 11.2799 18.9583 11.6667 18.9583ZM17.5 21.875H11.6667C11.2799 21.875 10.909 22.0286 10.6355 22.3021C10.362 22.5756 10.2083 22.9466 10.2083 23.3333C10.2083 23.7201 10.362 24.091 10.6355 24.3645C10.909 24.638 11.2799 24.7917 11.6667 24.7917H17.5C17.8868 24.7917 18.2577 24.638 18.5312 24.3645C18.8047 24.091 18.9583 23.7201 18.9583 23.3333C18.9583 22.9466 18.8047 22.5756 18.5312 22.3021C18.2577 22.0286 17.8868 21.875 17.5 21.875ZM35 2.91667V22.7299C35.0012 23.1131 34.9263 23.4927 34.7795 23.8466C34.6327 24.2006 34.4171 24.5218 34.145 24.7917L24.7917 34.145C24.5218 34.4171 24.2006 34.6327 23.8466 34.7795C23.4927 34.9263 23.1131 35.0012 22.7299 35H2.91667C2.14312 35 1.40125 34.6927 0.854271 34.1457C0.307291 33.5987 0 32.8569 0 32.0833V2.91667C0 2.14312 0.307291 1.40125 0.854271 0.854271C1.40125 0.307291 2.14312 0 2.91667 0H32.0833C32.8569 0 33.5987 0.307291 34.1457 0.854271C34.6927 1.40125 35 2.14312 35 2.91667ZM2.91667 32.0833H21.875V23.3333C21.875 22.9466 22.0286 22.5756 22.3021 22.3021C22.5756 22.0286 22.9466 21.875 23.3333 21.875H32.0833V2.91667H2.91667V32.0833ZM24.7917 24.7917V30.0234L30.0216 24.7917H24.7917Z" fill="currentColor"/>
</svg>
