<svg width="41" height="42" viewBox="0 0 41 42" fill="none" xmlns="http://www.w3.org/2000/svg">
  <path d="M4.10526 12.158H0V37.7369C0 38.8676 0.432517 39.9519 1.2024 40.7514C1.97229 41.5509 3.01648 42.0001 4.10526 42.0001H28.7368V37.7369H4.10526V12.158Z" fill="currentColor"/>
  <path d="M36.75 0H11.8816C10.7823 0 9.72807 0.436676 8.95078 1.21397C8.17349 1.99125 7.73682 3.04548 7.73682 4.14474V29.0132C7.73682 30.1124 8.17349 31.1666 8.95078 31.9439C9.72807 32.7212 10.7823 33.1579 11.8816 33.1579H36.75C37.8492 33.1579 38.9035 32.7212 39.6807 31.9439C40.458 31.1666 40.8947 30.1124 40.8947 29.0132V4.14474C40.8947 3.04548 40.458 1.99125 39.6807 1.21397C38.9035 0.436676 37.8492 0 36.75 0ZM18.0987 24.8684V8.28947L32.6052 16.5789L18.0987 24.8684Z" fill="currentColor"/>
</svg>
